<svg id="visual" viewBox="0 0 960 540" width="960" height="540" xmlns="http://www.w3.org/2000/svg" xmlns:xlink="http://www.w3.org/1999/xlink" version="1.1"><rect x="0" y="0" width="960" height="540" fill="#121212"></rect><path d="M0 427L26.7 436.5C53.3 446 106.7 465 160 475.3C213.3 485.7 266.7 487.3 320 483.2C373.3 479 426.7 469 480 463.3C533.3 457.7 586.7 456.3 640 452.5C693.3 448.7 746.7 442.3 800 441.8C853.3 441.3 906.7 446.7 933.3 449.3L960 452L960 541L933.3 541C906.7 541 853.3 541 800 541C746.7 541 693.3 541 640 541C586.7 541 533.3 541 480 541C426.7 541 373.3 541 320 541C266.7 541 213.3 541 160 541C106.7 541 53.3 541 26.7 541L0 541Z" fill="#00AEEF" stroke-linecap="round" stroke-linejoin="miter"></path></svg>